<svg width="1231" height="1231" viewBox="0 0 1231 1231" fill="none" xmlns="http://www.w3.org/2000/svg">
<path fill-rule="evenodd" clip-rule="evenodd" d="M615.5 295.441C528.591 295.441 517.685 295.81 483.537 297.361C449.463 298.912 426.197 304.329 405.836 312.232C384.483 320.274 365.142 332.877 349.161 349.162C332.873 365.15 320.27 384.5 312.231 405.862C304.328 426.198 298.936 449.464 297.36 483.538C295.809 517.686 295.44 528.592 295.44 615.501C295.44 702.409 295.809 713.316 297.36 747.464C298.911 781.538 304.328 804.804 312.231 825.14C320.429 846.19 331.361 864.04 349.161 881.84C365.142 898.125 384.483 910.728 405.836 918.77C426.197 926.648 449.463 932.065 483.537 933.641C517.685 935.192 528.591 935.561 615.5 935.561C702.408 935.561 713.315 935.192 747.463 933.641C781.537 932.089 804.803 926.673 825.139 918.77C846.501 910.732 865.851 898.129 881.839 881.84C898.127 865.852 910.73 846.502 918.769 825.14C926.647 804.804 932.064 781.538 933.639 747.464C935.191 713.316 935.56 702.409 935.56 615.501C935.56 528.592 935.191 517.686 933.639 483.538C932.088 449.464 926.672 426.198 918.744 405.862C910.713 384.503 898.118 365.153 881.839 349.162C865.851 332.873 846.501 320.27 825.139 312.232C804.803 304.353 781.537 298.937 747.463 297.361C713.315 295.81 702.408 295.441 615.5 295.441ZM615.5 353.101C700.956 353.101 711.075 353.446 744.829 354.972C776.022 356.4 792.985 361.619 804.261 366.002C819.206 371.812 829.866 378.73 841.068 389.932C852.27 401.135 859.189 411.795 864.999 426.739C869.381 438.015 874.601 454.954 876.029 486.172C877.555 519.901 877.9 530.045 877.9 615.501C877.9 700.957 877.555 711.076 876.029 744.83C874.601 776.048 869.381 792.986 864.999 804.262C859.872 818.165 851.695 830.742 841.068 841.069C830.742 851.697 818.164 859.874 804.261 865C792.985 869.382 776.022 874.602 744.829 876.03C711.099 877.556 700.956 877.901 615.5 877.901C530.044 877.901 519.9 877.556 486.171 876.03C454.953 874.602 438.014 869.382 426.738 865C412.835 859.874 400.258 851.697 389.931 841.069C379.306 830.741 371.129 818.164 366.001 804.262C361.618 792.986 356.399 776.048 354.971 744.83C353.445 711.1 353.1 700.957 353.1 615.501C353.1 530.045 353.445 519.926 354.971 486.172C356.399 454.954 361.618 438.015 366.001 426.739C371.811 411.795 378.729 401.135 389.931 389.932C400.259 379.306 412.836 371.129 426.738 366.002C438.014 361.619 454.953 356.4 486.171 354.972C519.9 353.446 530.044 353.101 615.5 353.101Z" fill="#C2A764"/>
<path fill-rule="evenodd" clip-rule="evenodd" d="M615.5 443.16C569.793 443.16 525.957 461.318 493.637 493.638C461.317 525.958 443.16 569.793 443.16 615.5C443.16 661.208 461.317 705.043 493.637 737.363C525.957 769.683 569.793 787.84 615.5 787.84C661.207 787.84 705.043 769.683 737.363 737.363C769.683 705.043 787.84 661.208 787.84 615.5C787.84 569.793 769.683 525.958 737.363 493.638C705.043 461.318 661.207 443.16 615.5 443.16ZM615.5 726.29C586.117 726.29 557.937 714.618 537.16 693.841C516.382 673.064 504.71 644.884 504.71 615.5C504.71 586.117 516.382 557.937 537.16 537.16C557.937 516.383 586.117 504.71 615.5 504.71C644.883 504.71 673.063 516.383 693.84 537.16C714.617 557.937 726.29 586.117 726.29 615.5C726.29 644.884 714.617 673.064 693.84 693.841C673.063 714.618 644.883 726.29 615.5 726.29ZM829.694 445.622C829.694 450.796 828.675 455.918 826.695 460.697C824.716 465.476 821.814 469.819 818.156 473.477C814.498 477.135 810.156 480.036 805.377 482.016C800.597 483.996 795.475 485.014 790.302 485.014C785.129 485.014 780.007 483.996 775.227 482.016C770.448 480.036 766.105 477.135 762.448 473.477C758.79 469.819 755.888 465.476 753.908 460.697C751.929 455.918 750.91 450.796 750.91 445.622C750.91 435.175 755.06 425.156 762.448 417.768C769.835 410.381 779.855 406.23 790.302 406.23C800.749 406.23 810.769 410.381 818.156 417.768C825.544 425.156 829.694 435.175 829.694 445.622Z" fill="#C2A764"/>
</svg>
