<svg width="1231" height="1231" viewBox="0 0 1231 1231" fill="none" xmlns="http://www.w3.org/2000/svg">
<path fill-rule="evenodd" clip-rule="evenodd" d="M617.963 883.86H667.203C667.203 883.86 681.975 881.398 689.361 874.012C696.747 866.626 696.747 851.854 696.747 851.854C696.747 851.854 696.747 787.842 726.291 777.994C755.835 768.146 795.227 842.006 834.619 869.088C864.163 891.246 886.321 886.322 886.321 886.322L994.649 883.86C994.649 883.86 1051.27 881.398 1024.19 834.62C1021.73 832.158 1009.42 802.614 942.947 741.064C874.01 677.052 883.859 689.362 965.105 578.572C1014.34 512.098 1034.04 472.706 1029.12 453.01C1024.19 435.776 987.263 440.7 987.263 440.7H864.162C864.162 440.7 854.315 438.238 849.391 443.162C842.005 448.086 839.542 455.472 839.542 455.472C839.542 455.472 819.846 507.174 795.227 551.49C741.062 642.584 718.905 647.508 711.519 642.584C691.823 630.274 696.747 588.42 696.747 561.338C696.747 472.706 711.519 435.776 669.665 425.928C657.355 423.466 647.507 421.004 613.039 421.004C568.723 421.004 531.793 421.004 512.097 430.852C497.325 438.238 487.477 453.01 494.863 453.01C502.249 453.01 521.945 457.934 531.793 470.244C541.641 492.402 541.641 529.332 541.641 529.332C541.641 529.332 549.027 635.198 524.407 647.508C507.173 657.356 485.015 637.66 435.775 553.952C411.155 512.098 391.459 462.858 391.459 462.858C391.459 462.858 388.997 453.01 381.611 448.086C374.225 443.162 361.915 440.7 361.915 440.7H246.201C246.201 440.7 228.967 440.7 221.581 448.086C216.657 455.472 221.581 467.782 221.581 467.782C221.581 467.782 312.675 679.514 416.079 787.842C512.097 891.246 617.963 883.86 617.963 883.86Z" fill="#C2A764"/>
</svg>
