<svg width="1231" height="1231" viewBox="0 0 1231 1231" fill="none" xmlns="http://www.w3.org/2000/svg">
<path d="M977.415 457.932C977.415 457.932 970.029 406.23 947.871 384.072C920.789 354.528 888.783 354.528 874.011 352.066C770.607 344.68 615.501 344.68 615.501 344.68C615.501 344.68 460.395 344.68 356.991 352.066C342.219 354.528 310.213 354.528 283.131 384.072C260.973 406.23 253.587 457.932 253.587 457.932C253.587 457.932 246.201 517.02 246.201 576.108V630.272C246.201 689.36 253.587 750.91 253.587 750.91C253.587 750.91 260.973 802.612 283.131 824.77C310.213 854.314 347.143 854.314 364.377 856.776C423.465 859.238 615.501 861.7 615.501 861.7C615.501 861.7 770.607 861.7 874.011 854.314C888.783 851.852 920.789 851.852 947.871 822.308C970.029 800.15 977.415 748.448 977.415 748.448C977.415 748.448 984.801 689.36 984.801 630.272V576.108C984.801 517.02 977.415 457.932 977.415 457.932ZM539.179 699.208V492.4L738.601 595.804L539.179 699.208Z" fill="#C2A764"/>
</svg>
